<?xml version="1.0" encoding="UTF-8"?>
<svg id="Camada_2" data-name="Camada 2" xmlns="http://www.w3.org/2000/svg" xmlns:xlink="http://www.w3.org/1999/xlink" viewBox="0 0 852.46 180.13">
  <defs>
    <style>
      .cls-1 {
        fill: url(#Gradiente_sem_nome_15);
      }

      .cls-1, .cls-2, .cls-3, .cls-4, .cls-5 {
        stroke-width: 0px;
      }

      .cls-2 {
        fill: #e2e2e2;
      }

      .cls-3 {
        fill: url(#Gradiente_sem_nome_16);
      }

      .cls-4 {
        fill: url(#Gradiente_sem_nome_8-2);
      }

      .cls-5 {
        fill: url(#Gradiente_sem_nome_8);
      }
    </style>
    <linearGradient id="Gradiente_sem_nome_8" data-name="Gradiente sem nome 8" x1="0" y1="90.21" x2="106.83" y2="90.21" gradientUnits="userSpaceOnUse">
      <stop offset="0" stop-color="#081efd"/>
      <stop offset=".68" stop-color="#1c99fe"/>
      <stop offset="1" stop-color="#27d6ff"/>
    </linearGradient>
    <linearGradient id="Gradiente_sem_nome_16" data-name="Gradiente sem nome 16" x1="141.17" y1="69.76" x2="93.3" y2="57.58" gradientUnits="userSpaceOnUse">
      <stop offset=".05" stop-color="#081e6a"/>
      <stop offset=".27" stop-color="#081efd"/>
      <stop offset=".76" stop-color="#1c99fe"/>
      <stop offset="1" stop-color="#27d6ff"/>
    </linearGradient>
    <linearGradient id="Gradiente_sem_nome_15" data-name="Gradiente sem nome 15" x1="233.3" y1="82.84" x2="308.25" y2="142.51" gradientUnits="userSpaceOnUse">
      <stop offset=".12" stop-color="#081e62"/>
      <stop offset=".34" stop-color="#081efd"/>
      <stop offset=".79" stop-color="#1c99fe"/>
      <stop offset="1" stop-color="#27d6ff"/>
    </linearGradient>
    <linearGradient id="Gradiente_sem_nome_8-2" data-name="Gradiente sem nome 8" x1="66.96" y1="90.18" x2="310.74" y2="90.18" xlink:href="#Gradiente_sem_nome_8"/>
  </defs>
  <g id="Camada_1-2" data-name="Camada 1">
    <g>
      <g>
        <path class="cls-5" d="M28.85,80.85H10.25c-1.72,0-3.27-1.29-3.36-3.01-.1-1.83,1.36-3.35,3.18-3.35h18.6c1.72,0,3.27,1.29,3.36,3.01.1,1.83-1.36,3.35-3.18,3.35ZM106.82,89.13c-.09,1.72-1.63,3.01-3.36,3.01h-61.12c-1.11,0-2.15.54-2.79,1.45l-8.68,12.34h-11.25c-1.46,4.37-5.83,7.42-10.8,6.82-4.56-.55-8.24-4.27-8.76-8.83-.69-6.07,4.07-11.24,10.01-11.24,4.44,0,8.22,2.89,9.55,6.89h7.95l8.68-12.34c.64-.91,1.68-1.45,2.79-1.45h64.6c1.81,0,3.27,1.52,3.18,3.35ZM13.65,103.76c.75-2.82-1.77-5.34-4.59-4.59-1.24.33-2.24,1.33-2.57,2.57-.75,2.82,1.77,5.34,4.59,4.59,1.24-.33,2.24-1.33,2.57-2.57ZM28.93,60.78c-.85-6.74,5.01-12.41,11.8-11.22,4.05.71,7.33,3.94,8.08,7.99.52,2.81-.13,5.46-1.54,7.56l3.08,4.03c.55.71,1.39,1.13,2.29,1.13h39.16c1.72,0,3.27,1.29,3.36,3.01.1,1.83-1.36,3.35-3.18,3.35h-42.49c-.9,0-1.75-.42-2.29-1.13l-4.98-6.52c-1.82.64-3.87.79-6.02.19-3.85-1.08-6.78-4.42-7.28-8.39ZM35.35,58.47c-.75,2.82,1.77,5.34,4.59,4.59,1.24-.33,2.24-1.33,2.57-2.57.75-2.82-1.77-5.34-4.59-4.59-1.24.33-2.24,1.33-2.57,2.57ZM94.27,105.22c-.09,1.72-1.63,3.01-3.36,3.01h-35.28c-1.33,0-2.59.6-3.43,1.64l-4.69,5.84c1.27,2.08,1.83,4.65,1.25,7.37-.84,3.99-4.13,7.14-8.16,7.79-6.82,1.11-12.66-4.67-11.65-11.48.6-4,3.66-7.32,7.6-8.25,2.18-.52,4.27-.29,6.1.45l6.5-8.09c.83-1.04,2.1-1.64,3.43-1.64h38.5c1.81,0,3.27,1.52,3.18,3.35ZM42.5,121.95c.75-2.82-1.77-5.34-4.59-4.59-1.24.33-2.24,1.33-2.57,2.57-.75,2.82,1.77,5.34,4.59,4.59,1.24-.33,2.24-1.33,2.57-2.57Z"/>
        <g>
          <path class="cls-3" d="M139.09,76.15c1.09-3.01,2.28-5.78,3.58-8.35-8.09-14.93-23.75-24.39-40.92-24.39h-26.76c-3.12,0-5.75,2.14-6.27,5.1-.31,1.82.18,3.66,1.36,5.06,1.18,1.4,2.9,2.2,4.73,2.2h26.2c16.42,0,30.79,11.41,34.17,27.13l.71,3.3c.89-3,1.79-6.03,2.83-9.02.12-.35.24-.69.37-1.04Z"/>
          <path class="cls-1" d="M305.25,109.23c-1.93,0-3.78.92-4.94,2.47-6.46,8.6-13.88,12.43-24.06,12.43h0c-.49,0-.98,0-1.49-.03h-.2c-16.83-.72-30.8-13.87-32.51-30.64l-.33-3.25c-.31.71-.62,1.41-.93,2.12l-.18.41c-2.25,5.17-4.57,10.46-7.31,15.62,7.29,16.99,23.97,28.15,42.75,28.15l3-.02v-.08c12.72-.71,22.92-6.37,31.09-17.22,1.82-2.41,1.69-5.75-.3-7.93-1.18-1.29-2.85-2.03-4.58-2.03Z"/>
          <path class="cls-4" d="M186.51,136.71c-1.22,0-2.44-.05-3.64-.15-1.88-.16-3.78-.44-5.64-.84-9.05-1.95-17.6-6.76-24.06-13.53-3.23-3.38-6.96-9.41-8.83-13.48-7.33,16.52-24.02,27.79-42.58,27.79h-28.62c-1.83,0-3.55-.8-4.73-2.2-1.18-1.4-1.67-3.24-1.36-5.06.51-2.95,3.15-5.1,6.27-5.1h28.44c7.45,0,14.63-2.45,20.79-7.07,5.18-3.89,9.18-9.67,12.25-17.66,1.45-3.79,2.64-7.8,3.78-11.68.92-3.14,1.88-6.38,2.99-9.56.12-.33.23-.66.35-.99,3.61-9.95,8.29-17.24,14.3-22.27,5.47-4.58,11.66-7.91,17.9-9.63,3.66-1.01,7.43-1.52,11.21-1.52,13.18,0,25.86,6.33,33.93,16.93,2.11,2.77,1.67,6.71-.98,8.78-1.08.85-2.43,1.32-3.81,1.32-1.93,0-3.78-.92-4.94-2.47-5.72-7.61-13.94-12.13-22.56-12.41-.31,0-.62-.01-.94-.01-6.83,0-13.94,2.4-19.51,6.59-5.36,4.04-9.54,9.82-11.78,16.29-4.95,14.34.21,30.41,12.54,39.08,5.85,4.11,13.05,6.37,20.29,6.37h.24c5.68-.04,11.08-1.45,15.61-4.08.72-.42,1.44-.88,2.13-1.37,10.77-7.56,16.22-20.6,21.49-33.21,1.74-4.17,3.54-8.48,5.5-12.46.22-.44.44-.88.65-1.33,1.66-3.34,3.39-6.25,5.27-8.9,4.23-5.94,9.56-10.74,15.41-13.88,6.13-3.28,13.09-5.13,20.15-5.34.49-.01.97-.02,1.46-.02,7.2,0,13.98,1.57,19.59,4.55,5.28,2.8,10.11,7.06,14.35,12.65,2.09,2.76,1.65,6.69-.98,8.76-1.09.85-2.44,1.32-3.82,1.32-1.93,0-3.78-.92-4.94-2.47-1.81-2.41-3.65-4.4-5.61-6.06-3.83-3.25-8.52-5.35-13.55-6.05-1.65-.23-3.32-.35-4.96-.35-4.91,0-9.62,1.02-14.01,3.04-4.38,2.02-8.18,4.82-10.98,8.11-2.56,3-4.49,6.53-6.61,10.9-1.09,2.25-2.25,4.75-3.64,7.86-.84,1.86-1.65,3.74-2.47,5.61-3.09,7.09-6.29,14.43-10.53,21.19-5.33,8.52-11.54,14.57-18.99,18.5-6.79,3.58-14.33,5.48-21.83,5.48Z"/>
        </g>
      </g>
      <g>
        <g>
          <path class="cls-2" d="M403.58,136.28c-3.83-2.08-8.12-3.13-12.75-3.13l-23.43-.03v46.51l23.43.03c4.63,0,8.92-1.05,12.75-3.13,3.83-2.08,6.93-4.9,9.22-8.39,2.31-3.52,3.48-7.46,3.48-11.72s-1.17-8.23-3.48-11.75c-2.29-3.49-5.39-6.31-9.22-8.39ZM404.72,163.65c-1.43,2.19-3.38,3.97-5.8,5.27-2.42,1.31-5.14,1.97-8.09,1.97h-14v-28.99h14c2.95,0,5.67.66,8.09,1.97,2.42,1.31,4.37,3.08,5.8,5.29,1.42,2.18,2.13,4.62,2.13,7.26s-.72,5.07-2.13,7.24Z"/>
          <path class="cls-2" d="M706,4.33c-3.83-2.08-8.12-3.13-12.75-3.13l-23.43-.03v46.51l23.43.03c4.63,0,8.92-1.05,12.75-3.13,3.83-2.08,6.93-4.9,9.22-8.39,2.31-3.52,3.48-7.46,3.48-11.72s-1.17-8.23-3.48-11.75c-2.29-3.49-5.39-6.31-9.22-8.39ZM707.13,31.7c-1.43,2.19-3.38,3.97-5.8,5.27-2.42,1.31-5.14,1.97-8.09,1.97h-14V9.96h14c2.95,0,5.67.66,8.09,1.97,2.42,1.31,4.37,3.08,5.8,5.29,1.42,2.18,2.13,4.62,2.13,7.26s-.72,5.07-2.13,7.24Z"/>
          <polygon class="cls-2" points="420.54 179.66 429.96 179.66 429.96 133.18 420.54 133.16 420.54 179.66"/>
          <polygon class="cls-2" points="488.08 179.66 497.5 179.66 497.5 133.18 488.08 133.16 488.08 179.66"/>
          <polygon class="cls-2" points="613.53 113.61 622.96 113.61 622.96 67.14 613.53 67.12 613.53 113.61"/>
          <path class="cls-2" d="M454.47,160.64h20.34c-.81,3.16-2.51,5.66-5.2,7.66-2.74,2.04-5.96,3.07-9.57,3.07-3.08,0-6.42-.73-8.51-1.86-2.28-1.23-4.12-2.91-5.47-4.97-1.33-2.04-2.01-4.34-2.01-6.83v-2.86c0-2.49.68-4.79,2.01-6.83,1.35-2.07,3.19-3.74,5.47-4.97,2.09-1.13,5.43-1.86,8.51-1.86,2.68,0,5.19.59,7.47,1.76,2.26,1.16,4.12,2.81,5.51,4.89l.53.79,8.14-4.44-.64-.95c-2.28-3.41-5.31-6.09-8.99-7.98-3.67-1.88-7.72-2.84-12.02-2.84-4.77,0-9.69,1.12-13.17,3.01-3.69,1.99-6.68,4.72-8.89,8.09-2.23,3.4-3.35,7.21-3.35,11.32v2.86c0,4.11,1.13,7.92,3.35,11.31,2.21,3.36,5.2,6.08,8.89,8.09,3.48,1.89,8.41,3.02,13.18,3.02,3.94,0,7.65-.8,11.03-2.36,3.38-1.57,6.25-3.75,8.55-6.49,2.31-2.76,3.84-5.97,4.57-9.55l.1-9.85h-29.82v8.76Z"/>
          <polygon class="cls-2" points="541.39 133.18 500.86 133.18 500.86 141.94 516.43 141.94 516.43 179.66 525.85 179.66 525.85 141.94 541.39 141.94 541.39 133.18"/>
          <polygon class="cls-2" points="594.54 133.11 585.11 133.11 585.11 179.62 616.89 179.66 616.89 170.89 594.54 170.89 594.54 133.11"/>
          <path class="cls-2" d="M495.02,67.07l-27.41.03v46.51h9.42v-13.92h17.99c3.25,0,6.26-.74,8.94-2.19,2.68-1.45,4.85-3.43,6.45-5.87,1.62-2.47,2.44-5.25,2.44-8.25s-.82-5.78-2.44-8.25c-1.6-2.44-3.77-4.42-6.45-5.87-2.68-1.45-5.69-2.19-8.94-2.19ZM501,88.69c-1.66,1.51-3.62,2.25-5.98,2.25h-17.99v-15.1h17.99c2.36,0,4.31.73,5.98,2.25,1.63,1.49,2.43,3.22,2.43,5.3s-.79,3.82-2.43,5.3Z"/>
          <polygon class="cls-2" points="628.34 75.9 643.92 75.9 643.92 113.61 653.34 113.61 653.34 75.9 668.88 75.9 668.88 67.13 628.34 67.13 628.34 75.9"/>
          <polygon class="cls-2" points="458.29 38.47 436.62 38.47 455.35 23.65 455.35 16.25 430.23 16.25 430.23 9.49 457.67 9.49 457.67 .73 420.8 .69 420.8 25.01 439.08 25.01 420.8 39.42 420.8 47.2 458.29 47.24 458.29 38.47"/>
          <polygon class="cls-2" points="761.16 39.47 739.48 39.47 758.22 24.65 758.22 17.25 733.09 17.25 733.09 10.49 760.54 10.49 760.54 1.73 723.67 1.69 723.67 26.01 741.95 26.01 723.67 40.42 723.67 48.2 761.16 48.24 761.16 39.47"/>
          <polygon class="cls-2" points="473.14 15.37 497.78 47.23 506.54 47.23 506.54 .72 497.11 .72 497.11 31.36 473.44 .72 463.72 .72 463.72 47.23 473.14 47.23 473.14 15.37"/>
          <polygon class="cls-2" points="526.23 47.23 535.66 47.23 535.66 9.52 551.19 9.52 551.19 .76 510.66 .76 510.66 9.52 526.23 9.52 526.23 47.23"/>
          <path class="cls-2" d="M565.49,29.98h14.33l9.45,17.25h10.54l-10.21-18.74c2.51-1.1,4.61-2.72,6.25-4.82,1.9-2.43,2.87-5.24,2.87-8.34,0-2.69-.74-5.18-2.2-7.4-1.44-2.19-3.39-3.97-5.79-5.27-2.41-1.31-5.1-1.97-8.01-1.97l-26.65.03v46.51h9.42v-17.25ZM565.49,9.46h17.23c1.85,0,3.38.58,4.68,1.76,1.27,1.16,1.89,2.51,1.89,4.12s-.62,2.97-1.89,4.12c-1.3,1.18-2.83,1.76-4.68,1.76h-17.23v-11.76Z"/>
          <path class="cls-2" d="M379.81,111.06c3.69,2.01,7.83,3.02,12.3,3.02,3.94,0,7.65-.8,11.03-2.36,3.38-1.57,6.25-3.75,8.55-6.49,2.31-2.76,3.84-5.97,4.57-9.55l.25-1.25h-9.56l-.22.74c-.84,2.79-2.5,5.15-4.93,7-2.75,2.09-6.01,3.16-9.68,3.16-2.79,0-5.36-.62-7.64-1.86-2.28-1.23-4.12-2.91-5.47-4.97-2.88-4.4-2.88-12.12,0-16.52,1.35-2.07,3.19-3.74,5.47-4.97,2.28-1.23,4.85-1.86,7.64-1.86,3.67,0,6.93,1.06,9.68,3.14,2.35,1.78,3.98,4.04,4.84,6.72l.23.72h9.59l-.28-1.27c-.77-3.46-2.29-6.57-4.51-9.23-2.28-2.73-5.16-4.91-8.55-6.48-3.39-1.57-7.09-2.36-11.01-2.36-4.47,0-8.61,1.01-12.3,3.01-3.69,1.99-6.68,4.72-8.89,8.09-4.11,6.28-5.23,17.53,0,25.5,2.21,3.36,5.2,6.08,8.89,8.09Z"/>
          <path class="cls-2" d="M379.81,44.68c3.69,2.01,7.83,3.02,12.3,3.02,3.94,0,7.65-.8,11.03-2.36,3.38-1.57,6.25-3.75,8.55-6.49,2.31-2.76,3.84-5.97,4.57-9.55l.25-1.25h-9.56l-.22.74c-.84,2.79-2.5,5.15-4.93,7-2.75,2.09-6.01,3.16-9.68,3.16-2.79,0-5.36-.62-7.64-1.86-2.28-1.23-4.12-2.91-5.47-4.97-2.88-4.4-2.88-12.12,0-16.52,1.35-2.07,3.19-3.74,5.47-4.97,2.28-1.23,4.85-1.86,7.64-1.86,3.67,0,6.93,1.06,9.68,3.14,2.35,1.78,3.98,4.04,4.84,6.72l.23.72h9.59l-.28-1.27c-.77-3.46-2.29-6.57-4.51-9.23-2.28-2.73-5.16-4.91-8.55-6.48-3.39-1.57-7.09-2.36-11.01-2.36-4.47,0-8.61,1.01-12.3,3.01-3.69,1.99-6.68,4.72-8.89,8.09-4.11,6.28-5.23,17.53,0,25.5,2.21,3.36,5.2,6.08,8.89,8.09Z"/>
          <polygon class="cls-2" points="446.83 95.79 455.21 113.62 465.53 113.58 442.99 67.07 434.94 67.07 412.36 113.62 422.72 113.58 431.1 95.79 438.95 79.07 446.83 95.79"/>
          <polygon class="cls-2" points="529.57 67.07 506.99 113.62 517.35 113.58 525.73 95.79 533.58 79.07 541.46 95.79 549.84 113.62 560.16 113.58 537.62 67.07 529.57 67.07"/>
          <polygon class="cls-2" points="680.5 67.07 657.93 113.62 668.29 113.58 676.67 95.79 684.52 79.07 692.4 95.79 700.78 113.62 711.09 113.58 688.56 67.07 680.5 67.07"/>
          <polygon class="cls-2" points="552.46 133.11 529.88 179.66 540.24 179.62 548.62 161.83 556.47 145.11 564.35 161.84 572.73 179.66 583.05 179.62 560.51 133.11 552.46 133.11"/>
          <path class="cls-2" d="M649.38,11.1c-2.21-3.37-5.2-6.1-8.89-8.09-3.65-1.97-7.73-2.98-12.14-3-4.41.02-8.5,1.03-12.14,3-3.69,1.99-6.68,4.72-8.89,8.09-4.11,6.28-5.23,17.53,0,25.5,2.21,3.36,5.2,6.08,8.89,8.09,3.65,1.98,7.73,3,12.15,3.02,4.41-.02,8.5-1.04,12.15-3.02,3.69-2,6.68-4.73,8.89-8.09,5.23-7.97,4.11-19.22,0-25.5ZM641.3,32.11c-1.35,2.07-3.19,3.74-5.47,4.97-2.24,1.21-4.75,1.83-7.48,1.85-2.73-.02-5.24-.64-7.48-1.85-2.28-1.23-4.12-2.91-5.47-4.97-2.88-4.4-2.88-12.12,0-16.52,1.35-2.07,3.19-3.74,5.47-4.97,2.24-1.21,4.75-1.83,7.48-1.85,2.73.02,5.24.64,7.48,1.85,2.28,1.23,4.12,2.91,5.47,4.97,2.88,4.4,2.88,12.12,0,16.52Z"/>
          <path class="cls-2" d="M848.94,77.48c-2.21-3.37-5.2-6.1-8.89-8.09-3.65-1.97-7.73-2.98-12.14-3-4.41.02-8.5,1.03-12.14,3-3.69,1.99-6.68,4.72-8.89,8.09-4.11,6.28-5.23,17.53,0,25.5,2.21,3.36,5.2,6.08,8.89,8.09,3.65,1.98,7.73,3,12.15,3.02,4.41-.02,8.5-1.04,12.15-3.02,3.69-2,6.68-4.73,8.89-8.09,5.23-7.97,4.11-19.22,0-25.5ZM840.86,98.49c-1.35,2.07-3.19,3.74-5.47,4.97-2.24,1.21-4.75,1.83-7.48,1.85-2.73-.02-5.24-.64-7.48-1.85-2.28-1.23-4.12-2.91-5.47-4.97-2.88-4.4-2.88-12.12,0-16.52,1.35-2.07,3.19-3.74,5.47-4.97,2.24-1.21,4.75-1.83,7.48-1.85,2.73.02,5.24.64,7.48,1.85,2.28,1.23,4.12,2.91,5.47,4.97,2.88,4.4,2.88,12.12,0,16.52Z"/>
          <path class="cls-2" d="M569.72,111.06c3.69,2.01,7.83,3.02,12.3,3.02,3.94,0,7.65-.8,11.03-2.36,3.38-1.57,6.25-3.75,8.55-6.49,2.31-2.76,3.84-5.97,4.57-9.55l.25-1.25h-9.56l-.22.74c-.84,2.79-2.5,5.15-4.93,7-2.75,2.09-6.01,3.16-9.68,3.16-2.79,0-5.36-.62-7.64-1.86-2.28-1.23-4.12-2.91-5.47-4.97-2.88-4.4-2.88-12.12,0-16.52,1.35-2.07,3.19-3.74,5.47-4.97,2.28-1.23,4.85-1.86,7.64-1.86,3.67,0,6.93,1.06,9.68,3.14,2.35,1.78,3.98,4.04,4.84,6.72l.23.72h9.59l-.28-1.27c-.77-3.46-2.29-6.57-4.51-9.23-2.28-2.73-5.16-4.91-8.55-6.48-3.39-1.57-7.09-2.36-11.01-2.36-4.47,0-8.61,1.01-12.3,3.01-3.69,1.99-6.68,4.72-8.89,8.09-4.11,6.28-5.23,17.53,0,25.5,2.21,3.36,5.2,6.08,8.89,8.09Z"/>
          <g>
            <path class="cls-2" d="M719.5,111.06c3.69,2.01,7.83,3.02,12.3,3.02,3.94,0,7.65-.8,11.03-2.36,3.38-1.57,6.25-3.75,8.55-6.49,2.31-2.76,3.84-5.97,4.57-9.55l.25-1.25h-9.56l-.22.74c-.84,2.79-2.5,5.15-4.93,7-2.75,2.09-6.01,3.16-9.68,3.16-2.79,0-5.36-.62-7.64-1.86-2.28-1.23-4.12-2.91-5.47-4.97-2.88-4.4-2.88-12.12,0-16.52,1.35-2.07,3.19-3.74,5.47-4.97,2.28-1.23,4.85-1.86,7.64-1.86,3.67,0,6.93,1.06,9.68,3.14,2.35,1.78,3.98,4.04,4.84,6.72l.23.72h9.59l-.28-1.27c-.77-3.46-2.29-6.57-4.51-9.23-2.28-2.73-5.16-4.91-8.55-6.48-3.39-1.57-7.09-2.36-11.01-2.36-4.47,0-8.61,1.01-12.3,3.01-3.69,1.99-6.68,4.72-8.89,8.09-4.11,6.28-5.23,17.53,0,25.5,2.21,3.36,5.2,6.08,8.89,8.09Z"/>
            <path class="cls-2" d="M723.1,120.35c2.59,1.58,4.53,2.38,5.83,2.38,1.23,0,2.1-.19,2.61-.57.51-.38.77-1.06.77-2.04,0-.92-.46-1.55-1.37-1.91-.67-.25-1.71-.37-3.11-.37-.54,0-1.14.02-1.81.07l1.81-6.16h3.58l-1.17,2.91s.42-.04,1.14-.07c2.19,0,3.88.5,5.07,1.51,1.19,1,1.79,2.33,1.79,3.98,0,1.74-.71,3.15-2.14,4.24-1.43,1.08-3.4,1.62-5.93,1.62s-4.92-.42-7.07-1.27v-4.32Z"/>
          </g>
        </g>
        <polygon class="cls-2" points="776.77 67.07 754.19 113.62 764.55 113.58 772.93 95.79 780.78 79.07 788.66 95.79 797.04 113.62 807.36 113.58 784.82 67.07 776.77 67.07"/>
        <path class="cls-2" d="M791.14,52.46c-1.66,5.53-4.32,8.29-8,8.29-1.7,0-3.4-.42-5.1-1.26-1.69-.84-3.17-1.26-4.44-1.26-1.39,0-2.3.84-2.74,2.52h-2.45c1.41-5.53,4.1-8.29,8.07-8.29,1.51,0,3.12.4,4.82,1.21,1.7.8,3.19,1.21,4.46,1.21,1.46,0,2.44-.8,2.92-2.41h2.45Z"/>
      </g>
    </g>
  </g>
</svg>