<?xml version="1.0" encoding="UTF-8"?>
<svg id="Camada_2" data-name="Camada 2" xmlns="http://www.w3.org/2000/svg" xmlns:xlink="http://www.w3.org/1999/xlink" viewBox="0 0 775.84 175.3">
  <defs>
    <style>
      .cls-1 {
        fill: url(#Gradiente_sem_nome_15);
      }

      .cls-1, .cls-2, .cls-3, .cls-4, .cls-5 {
        stroke-width: 0px;
      }

      .cls-2 {
        fill: #e2e2e2;
      }

      .cls-3 {
        fill: url(#Gradiente_sem_nome_16);
      }

      .cls-4 {
        fill: url(#Gradiente_sem_nome_8-2);
      }

      .cls-5 {
        fill: url(#Gradiente_sem_nome_8);
      }
    </style>
    <linearGradient id="Gradiente_sem_nome_8" data-name="Gradiente sem nome 8" x1="0" y1="87.79" x2="106.83" y2="87.79" gradientUnits="userSpaceOnUse">
      <stop offset="0" stop-color="#081efd"/>
      <stop offset=".68" stop-color="#1c99fe"/>
      <stop offset="1" stop-color="#27d6ff"/>
    </linearGradient>
    <linearGradient id="Gradiente_sem_nome_16" data-name="Gradiente sem nome 16" x1="141.17" y1="67.34" x2="93.3" y2="55.17" gradientUnits="userSpaceOnUse">
      <stop offset=".05" stop-color="#081e6a"/>
      <stop offset=".27" stop-color="#081efd"/>
      <stop offset=".76" stop-color="#1c99fe"/>
      <stop offset="1" stop-color="#27d6ff"/>
    </linearGradient>
    <linearGradient id="Gradiente_sem_nome_15" data-name="Gradiente sem nome 15" x1="233.3" y1="80.42" x2="308.25" y2="140.1" gradientUnits="userSpaceOnUse">
      <stop offset=".12" stop-color="#081e62"/>
      <stop offset=".34" stop-color="#081efd"/>
      <stop offset=".79" stop-color="#1c99fe"/>
      <stop offset="1" stop-color="#27d6ff"/>
    </linearGradient>
    <linearGradient id="Gradiente_sem_nome_8-2" data-name="Gradiente sem nome 8" x1="66.96" y1="87.77" x2="310.74" y2="87.77" xlink:href="#Gradiente_sem_nome_8"/>
  </defs>
  <g id="Camada_1-2" data-name="Camada 1">
    <g>
      <path class="cls-2" d="M411.78,3.86c-3.83-2.08-8.12-3.13-12.75-3.13l-23.43-.03v46.51l23.43.03c4.63,0,8.92-1.05,12.75-3.13,3.83-2.08,6.93-4.9,9.22-8.39,2.31-3.52,3.48-7.46,3.48-11.72s-1.17-8.23-3.48-11.75c-2.29-3.49-5.39-6.31-9.22-8.39ZM415.04,24c0,2.63-.72,5.07-2.13,7.24-1.43,2.19-3.38,3.97-5.8,5.27-2.42,1.31-5.14,1.97-8.09,1.97h-14V9.49h14c2.95,0,5.67.66,8.09,1.97,2.42,1.31,4.37,3.08,5.8,5.29,1.42,2.18,2.13,4.62,2.13,7.26ZM428.73.74l9.42.02v46.48h-9.42V.74ZM496.27.74l9.42.02v46.48h-9.42V.74ZM617.72,64.5l9.42.02v46.48h-9.42v-46.49ZM670.74,64.5l9.42.02v46.48h-9.42v-46.49ZM462.67,19.46h29.82l-.1,9.85c-.72,3.58-2.26,6.79-4.57,9.55-2.29,2.74-5.17,4.93-8.55,6.49-3.38,1.57-7.09,2.36-11.03,2.36-4.77,0-9.69-1.13-13.18-3.02-3.69-2-6.68-4.73-8.89-8.09-2.23-3.39-3.36-7.19-3.36-11.31v-2.86c0-4.11,1.13-7.92,3.35-11.32,2.21-3.37,5.2-6.1,8.89-8.09,3.48-1.88,8.41-3.01,13.17-3.01,4.3,0,8.34.95,12.02,2.84,3.68,1.89,6.71,4.57,8.99,7.98l.64.95-8.14,4.44-.53-.79c-1.39-2.09-3.25-3.73-5.51-4.89-2.27-1.17-4.79-1.76-7.47-1.76-3.08,0-6.42.73-8.51,1.86-2.28,1.23-4.12,2.91-5.47,4.97-1.33,2.04-2.01,4.34-2.01,6.83v2.86c0,2.49.68,4.79,2.01,6.83,1.35,2.07,3.19,3.74,5.47,4.97,2.09,1.13,5.43,1.86,8.51,1.86,3.61,0,6.83-1.03,9.57-3.07,2.69-1.99,4.39-4.5,5.2-7.66h-20.34v-8.76ZM549.59,9.52h-15.54v37.72h-9.42V9.52h-15.57V.76h40.54v8.76ZM602.73,38.47h22.36v8.76l-31.78-.03V.69h9.42v37.78ZM518.61,89.02c1.62-2.47,2.44-5.25,2.44-8.25s-.82-5.78-2.44-8.25c-1.6-2.44-3.77-4.42-6.45-5.87-2.68-1.45-5.69-2.19-8.94-2.19l-27.41.03v46.51h9.42v-13.92h17.99c3.25,0,6.26-.74,8.94-2.19,2.68-1.45,4.85-3.43,6.45-5.87ZM511.62,80.77c0,2.08-.79,3.82-2.43,5.3-1.66,1.51-3.62,2.25-5.98,2.25h-17.99v-15.1h17.99c2.36,0,4.31.73,5.98,2.25,1.63,1.49,2.43,3.22,2.43,5.3ZM607.32,86.18c.99-1.01,1.8-2.15,2.42-3.4.81-1.63,1.22-3.4,1.22-5.25,0-2.4-.66-4.62-1.95-6.6-1.28-1.95-3.01-3.53-5.15-4.69-2.14-1.16-4.54-1.75-7.12-1.75l-26.31-.03v46.51l25.62.03c2.91,0,5.6-.66,8-1.95,2.41-1.3,4.35-3.07,5.78-5.26,1.44-2.22,2.18-4.71,2.18-7.4,0-2.2-.51-4.27-1.53-6.16-.81-1.51-1.87-2.87-3.15-4.05ZM600.16,80.51c-.95.87-2.08,1.29-3.43,1.29h-16.88v-8.55h16.88c1.36,0,2.48.42,3.43,1.29.92.84,1.37,1.82,1.37,2.99s-.45,2.15-1.37,2.99ZM602.56,96.38c0,1.62-.61,2.96-1.87,4.11-1.29,1.17-2.81,1.74-4.66,1.74h-16.19v-11.67h16.19c1.85,0,3.37.57,4.66,1.74,1.26,1.15,1.87,2.48,1.87,4.08ZM643.49,102.23h22.36v8.76l-31.78-.03v-46.51h9.42v37.78ZM684.62,64.52h40.54v8.76h-15.54v37.72h-9.42v-37.72h-15.57v-8.76ZM764.61,64.48h11.23l-20.17,28.8v17.72h-9.42v-17.75l-19.84-28.76h11.19l13.37,19.43,13.64-19.43ZM444.81,166.07h21.68v8.76l-37.49-.03v-7.78l18.28-14.41h-18.28v-24.32l36.87.03v8.76h-27.44v6.76h25.13v7.41l-18.74,14.82ZM505.31,128.32h9.42v46.51h-8.75l-24.64-31.86v31.86h-9.42v-46.51h9.72l23.67,30.63v-30.63ZM518.85,128.35h40.54v8.76h-15.54v37.72h-9.42v-37.72h-15.57v-8.76ZM580.07,166.07h21.68v8.76l-37.49-.03v-7.78l18.28-14.41h-18.28v-24.32l36.87.03v8.76h-27.44v6.76h25.13v7.41l-18.74,14.82ZM640.77,156.09c2.51-1.1,4.61-2.72,6.25-4.82,1.9-2.43,2.87-5.24,2.87-8.34,0-2.69-.74-5.18-2.2-7.4-1.44-2.19-3.39-3.97-5.79-5.27-2.41-1.31-5.1-1.97-8.01-1.97l-26.65.03v46.51h9.42v-17.25h14.33l9.45,17.25h10.54l-10.21-18.74ZM640.46,142.93c0,1.62-.62,2.97-1.89,4.12-1.3,1.18-2.83,1.76-4.68,1.76h-17.23v-11.76h17.23c1.85,0,3.38.58,4.68,1.76,1.27,1.16,1.89,2.51,1.89,4.12ZM424.44,93.06c-.72,3.58-2.26,6.79-4.57,9.55-2.29,2.74-5.17,4.93-8.55,6.49-3.38,1.57-7.09,2.36-11.03,2.36-4.47,0-8.61-1.02-12.3-3.02-3.69-2-6.68-4.73-8.89-8.09-5.23-7.97-4.11-19.22,0-25.5,2.21-3.37,5.2-6.1,8.89-8.09,3.69-1.99,7.83-3.01,12.3-3.01,3.92,0,7.62.8,11.01,2.36,3.39,1.57,6.27,3.75,8.55,6.48,2.22,2.66,3.74,5.77,4.51,9.23l.28,1.27h-9.59l-.23-.72c-.87-2.68-2.5-4.94-4.84-6.72-2.75-2.08-6.01-3.14-9.68-3.14-2.79,0-5.36.63-7.64,1.86-2.28,1.23-4.12,2.91-5.47,4.97-2.88,4.4-2.88,12.12,0,16.52,1.35,2.07,3.19,3.74,5.47,4.97,2.28,1.23,4.85,1.86,7.64,1.86,3.67,0,6.93-1.06,9.68-3.16,2.43-1.85,4.09-4.2,4.93-7l.22-.74h9.56l-.25,1.25ZM415.14,155.65h9.56l-.25,1.25c-.72,3.58-2.26,6.79-4.57,9.55-2.29,2.74-5.17,4.93-8.55,6.49-3.38,1.57-7.09,2.36-11.03,2.36-4.47,0-8.61-1.02-12.3-3.02-3.69-2-6.68-4.73-8.89-8.09-5.23-7.97-4.11-19.22,0-25.5,2.21-3.37,5.2-6.1,8.89-8.09,3.69-1.99,7.83-3.01,12.3-3.01,3.92,0,7.62.8,11.01,2.36,3.39,1.57,6.27,3.75,8.55,6.48,2.22,2.66,3.74,5.77,4.51,9.23l.28,1.27h-9.59l-.23-.72c-.87-2.68-2.5-4.94-4.84-6.72-2.75-2.08-6.01-3.14-9.68-3.14-2.79,0-5.36.63-7.64,1.86-2.28,1.23-4.12,2.91-5.47,4.97-2.88,4.4-2.88,12.12,0,16.52,1.35,2.07,3.19,3.74,5.47,4.97,2.28,1.23,4.85,1.86,7.64,1.86,3.67,0,6.93-1.06,9.68-3.16,2.43-1.85,4.09-4.2,4.93-7l.22-.74ZM451.19,64.45l22.53,46.5-10.32.04-8.38-17.82-7.88-16.72-7.85,16.72-8.38,17.79-10.36.04,22.58-46.55h8.06ZM545.82,64.45l22.53,46.5-10.32.04-8.38-17.82-7.88-16.72-7.85,16.72-8.38,17.79-10.36.04,22.58-46.55h8.06ZM568.71.69l22.53,46.5-10.32.04-8.38-17.82-7.88-16.72-7.85,16.72-8.38,17.79-10.36.04L560.65.69h8.06Z"/>
      <g>
        <path class="cls-5" d="M28.85,78.43H10.25c-1.72,0-3.27-1.29-3.36-3.01-.1-1.83,1.36-3.35,3.18-3.35h18.6c1.72,0,3.27,1.29,3.36,3.01.1,1.83-1.36,3.35-3.18,3.35ZM106.82,86.72c-.09,1.72-1.63,3.01-3.36,3.01h-61.12c-1.11,0-2.15.54-2.79,1.45l-8.68,12.34h-11.25c-1.46,4.37-5.83,7.42-10.8,6.82-4.56-.55-8.24-4.27-8.76-8.83-.69-6.07,4.07-11.24,10.01-11.24,4.44,0,8.22,2.89,9.55,6.89h7.95l8.68-12.34c.64-.91,1.68-1.45,2.79-1.45h64.6c1.81,0,3.27,1.52,3.18,3.35ZM13.65,101.35c.75-2.82-1.77-5.34-4.59-4.59-1.24.33-2.24,1.33-2.57,2.57-.75,2.82,1.77,5.34,4.59,4.59,1.24-.33,2.24-1.33,2.57-2.57ZM28.93,58.36c-.85-6.74,5.01-12.41,11.8-11.22,4.05.71,7.33,3.94,8.08,7.99.52,2.81-.13,5.46-1.54,7.56l3.08,4.03c.55.71,1.39,1.13,2.29,1.13h39.16c1.72,0,3.27,1.29,3.36,3.01.1,1.83-1.36,3.35-3.18,3.35h-42.49c-.9,0-1.75-.42-2.29-1.13l-4.98-6.52c-1.82.64-3.87.79-6.02.19-3.85-1.08-6.78-4.42-7.28-8.39ZM35.35,56.05c-.75,2.82,1.77,5.34,4.59,4.59,1.24-.33,2.24-1.33,2.57-2.57.75-2.82-1.77-5.34-4.59-4.59-1.24.33-2.24,1.33-2.57,2.57ZM94.27,102.81c-.09,1.72-1.63,3.01-3.36,3.01h-35.28c-1.33,0-2.59.6-3.43,1.64l-4.69,5.84c1.27,2.08,1.83,4.65,1.25,7.37-.84,3.99-4.13,7.14-8.16,7.79-6.82,1.11-12.66-4.67-11.65-11.48.6-4,3.66-7.32,7.6-8.25,2.18-.52,4.27-.29,6.1.45l6.5-8.09c.83-1.04,2.1-1.64,3.43-1.64h38.5c1.81,0,3.27,1.52,3.18,3.35ZM42.5,119.54c.75-2.82-1.77-5.34-4.59-4.59-1.24.33-2.24,1.33-2.57,2.57-.75,2.82,1.77,5.34,4.59,4.59,1.24-.33,2.24-1.33,2.57-2.57Z"/>
        <g>
          <path class="cls-3" d="M139.09,73.74c1.09-3.01,2.28-5.78,3.58-8.35-8.09-14.93-23.75-24.39-40.92-24.39h-26.76c-3.12,0-5.75,2.14-6.27,5.1-.31,1.82.18,3.66,1.36,5.06,1.18,1.4,2.9,2.2,4.73,2.2h26.2c16.42,0,30.79,11.41,34.17,27.13l.71,3.3c.89-3,1.79-6.03,2.83-9.02.12-.35.24-.69.37-1.04Z"/>
          <path class="cls-1" d="M305.25,106.81c-1.93,0-3.78.92-4.94,2.47-6.46,8.6-13.88,12.43-24.06,12.43h0c-.49,0-.98,0-1.49-.03h-.2c-16.83-.72-30.8-13.87-32.51-30.64l-.33-3.25c-.31.71-.62,1.41-.93,2.12l-.18.41c-2.25,5.17-4.57,10.46-7.31,15.62,7.29,16.99,23.97,28.15,42.75,28.15l3-.02v-.08c12.72-.71,22.92-6.37,31.09-17.22,1.82-2.41,1.69-5.75-.3-7.93-1.18-1.29-2.85-2.03-4.58-2.03Z"/>
          <path class="cls-4" d="M186.51,134.3c-1.22,0-2.44-.05-3.64-.15-1.88-.16-3.78-.44-5.64-.84-9.05-1.95-17.6-6.76-24.06-13.53-3.23-3.38-6.96-9.41-8.83-13.48-7.33,16.52-24.02,27.79-42.58,27.79h-28.62c-1.83,0-3.55-.8-4.73-2.2-1.18-1.4-1.67-3.24-1.36-5.06.51-2.95,3.15-5.1,6.27-5.1h28.44c7.45,0,14.63-2.45,20.79-7.07,5.18-3.89,9.18-9.67,12.25-17.66,1.45-3.79,2.64-7.8,3.78-11.68.92-3.14,1.88-6.38,2.99-9.56.12-.33.23-.66.35-.99,3.61-9.95,8.29-17.24,14.3-22.27,5.47-4.58,11.66-7.91,17.9-9.63,3.66-1.01,7.43-1.52,11.21-1.52,13.18,0,25.86,6.33,33.93,16.93,2.11,2.77,1.67,6.71-.98,8.78-1.08.85-2.43,1.32-3.81,1.32-1.93,0-3.78-.92-4.94-2.47-5.72-7.61-13.94-12.13-22.56-12.41-.31,0-.62-.01-.94-.01-6.83,0-13.94,2.4-19.51,6.59-5.36,4.04-9.54,9.82-11.78,16.29-4.95,14.34.21,30.41,12.54,39.08,5.85,4.11,13.05,6.37,20.29,6.37h.24c5.68-.04,11.08-1.45,15.61-4.08.72-.42,1.44-.88,2.13-1.37,10.77-7.56,16.22-20.6,21.49-33.21,1.74-4.17,3.54-8.48,5.5-12.46.22-.44.44-.88.65-1.33,1.66-3.34,3.39-6.25,5.27-8.9,4.23-5.94,9.56-10.74,15.41-13.88,6.13-3.28,13.09-5.13,20.15-5.34.49-.01.97-.02,1.46-.02,7.2,0,13.98,1.57,19.59,4.55,5.28,2.8,10.11,7.06,14.35,12.65,2.09,2.76,1.65,6.69-.98,8.76-1.09.85-2.44,1.32-3.82,1.32-1.93,0-3.78-.92-4.94-2.47-1.81-2.41-3.65-4.4-5.61-6.06-3.83-3.25-8.52-5.35-13.55-6.05-1.65-.23-3.32-.35-4.96-.35-4.91,0-9.62,1.02-14.01,3.04-4.38,2.02-8.18,4.82-10.98,8.11-2.56,3-4.49,6.53-6.61,10.9-1.09,2.25-2.25,4.75-3.64,7.86-.84,1.86-1.65,3.74-2.47,5.61-3.09,7.09-6.29,14.43-10.53,21.19-5.33,8.52-11.54,14.57-18.99,18.5-6.79,3.58-14.33,5.48-21.83,5.48Z"/>
        </g>
      </g>
    </g>
  </g>
</svg>